<?xml version="1.0" encoding="UTF-8"?>
<svg version="1.1" xmlns="http://www.w3.org/2000/svg" width="511" height="511">
<path d="M0 0 C168.63 0 337.26 0 511 0 C511 168.63 511 337.26 511 511 C342.37 511 173.74 511 0 511 C0 342.37 0 173.74 0 0 Z " fill="#F1F0F0" transform="translate(0,0)"/>
<path d="M0 0 C3.4467467 15.70921093 6.43063374 31.49168155 9.3125 47.3125 C9.49498291 48.30954956 9.67746582 49.30659912 9.86547852 50.3338623 C10.38875164 53.19727028 10.90803091 56.06137008 11.42578125 58.92578125 C11.66449699 60.23217308 11.66449699 60.23217308 11.90803528 61.56495667 C12.05222397 62.3689238 12.19641266 63.17289093 12.3449707 64.0012207 C12.47200882 64.70382523 12.59904694 65.40642975 12.72993469 66.13032532 C13 68 13 68 13 71 C-3.87543341 73.94400084 -21.14255621 74.22190052 -38 71 C-37.46116642 63.63944584 -36.47412826 56.51441653 -35.00390625 49.28515625 C-34.71349709 47.81966591 -34.71349709 47.81966591 -34.41722107 46.3245697 C-33.80430464 43.23612391 -33.18382241 40.14926459 -32.5625 37.0625 C-31.74866533 32.99140801 -30.9382681 28.91963954 -30.12890625 24.84765625 C-29.93648346 23.88429352 -29.74406067 22.92093079 -29.54580688 21.92837524 C-28.35714329 15.93895123 -27.27239352 9.95254755 -26.37475586 3.91186523 C-26 2 -26 2 -25 1 C-23.65730372 0.84357839 -22.30720743 0.74936082 -20.95703125 0.68359375 C-20.13009766 0.64169922 -19.30316406 0.59980469 -18.45117188 0.55664062 C-17.58041016 0.51732422 -16.70964844 0.47800781 -15.8125 0.4375 C-14.96107422 0.39431641 -14.10964844 0.35113281 -13.23242188 0.30664062 C-8.81725221 0.09151635 -4.42182148 -0.05065917 0 0 Z " fill="#FC6A27" transform="translate(271,349)"/>
<path d="M0 0 C1.5621348 2.58194355 2.86449307 5.02768845 4.125 7.75 C4.47175781 8.46671875 4.81851563 9.1834375 5.17578125 9.921875 C6.92325467 13.56411845 8.55801916 17.22409141 10 21 C1.54075138 28.07068945 -7.17456143 34.76949552 -15.95019531 41.43945312 C-18.36010159 43.27415071 -20.76309861 45.1176131 -23.1628418 46.96557617 C-24.72512945 48.16835262 -26.29027752 49.36741071 -27.85546875 50.56640625 C-30.10405901 52.30661958 -32.33287053 54.06154064 -34.55078125 55.83984375 C-35.13827148 56.30559814 -35.72576172 56.77135254 -36.33105469 57.2512207 C-37.4565141 58.14419308 -38.57604669 59.0447049 -39.68847656 59.95385742 C-42.84471526 62.44358932 -43.80690271 63 -48 63 C-58.59068535 52.51238702 -67.23876647 32.44197801 -70 18 C-69.16919922 17.76345703 -68.33839844 17.52691406 -67.48242188 17.28320312 C-58.48028456 14.71616786 -49.48816856 12.11551023 -40.5 9.5 C-30.67400955 6.64068797 -20.84188394 3.80424637 -11 1 C-9.79408203 0.61134766 -8.58816406 0.22269531 -7.34570312 -0.17773438 C-2.67410493 -1.32586213 -2.67410493 -1.32586213 0 0 Z " fill="#BF8C30" transform="translate(170,288)"/>
<path d="M0 0 C2.06399891 0.06132152 4.12585997 0.1969835 6.18408203 0.36303711 C8.09595306 0.51420486 8.09595306 0.51420486 10.04644775 0.66842651 C12.00345612 0.83255539 12.00345612 0.83255539 14 1 C15.15465759 1.09483673 16.30931519 1.18967346 17.4989624 1.28738403 C21.01821897 1.58124778 24.53650392 1.88497445 28.0546875 2.19140625 C29.95602951 2.35575417 29.95602951 2.35575417 31.89578247 2.52342224 C35.2132208 2.81035971 38.53057931 3.09818697 41.84790039 3.38647461 C45.25400242 3.68224717 48.6602091 3.97680964 52.06640625 4.27148438 C58.71103275 4.84656103 65.3555564 5.42281417 72 6 C72.02505615 6.61520508 72.0501123 7.23041016 72.07592773 7.86425781 C72.19218487 10.65970156 72.31477642 13.45483298 72.4375 16.25 C72.47681641 17.21808594 72.51613281 18.18617188 72.55664062 19.18359375 C72.59853516 20.11816406 72.64042969 21.05273438 72.68359375 22.015625 C72.72025146 22.87446289 72.75690918 23.73330078 72.79467773 24.61816406 C72.98703514 26.84960143 73.38846244 28.84982524 74 31 C73.39341553 31.17539307 72.78683105 31.35078613 72.16186523 31.53149414 C60.81199959 34.81734571 49.47915862 38.14396775 38.1875 41.625 C30.92744403 43.85244643 23.650727 45.98168106 16.3125 47.9375 C15.52834717 48.14906738 14.74419434 48.36063477 13.9362793 48.57861328 C10.47806638 49.48129021 7.60000056 50 4 50 C-0.77937739 34.39429381 -2.44292237 17.25911162 -1 1 C-0.67 0.67 -0.34 0.34 0 0 Z " fill="#407F45" transform="translate(93,246)"/>
<path d="M0 0 C4.19102403 1.31270447 8.05470445 2.89479721 11.98950195 4.84155273 C13.14702469 5.4123204 14.30454742 5.98308807 15.49714661 6.57115173 C16.74438204 7.19158282 17.99142244 7.81240611 19.23828125 8.43359375 C20.52765555 9.07379392 21.8170593 9.7139348 23.10649109 10.35401917 C25.7984718 11.6917935 28.48869607 13.0330312 31.17797852 14.3762207 C34.62788375 16.09846763 38.08408562 17.80765897 41.54195881 19.51383877 C44.20211623 20.82907672 46.85775118 22.15324631 49.51219749 23.47996712 C50.78524751 24.11438638 52.05994946 24.74550181 53.33629799 25.37325859 C55.1147024 26.24908337 56.88627463 27.13874056 58.6574707 28.02905273 C59.66751663 28.53154037 60.67756256 29.03402802 61.71821594 29.55174255 C64 31 64 31 65 34 C64.28647326 36.49734359 63.51411666 38.87925256 62.625 41.3125 C60.99366373 45.84349168 59.63922803 50.20578978 59 55 C50.95706926 55.15336816 43.07553054 54.69358228 35.0703125 53.94140625 C33.28027298 53.77849342 33.28027298 53.77849342 31.45407104 53.61228943 C28.95125972 53.3834581 26.4486666 53.1522284 23.94628906 52.91870117 C20.11575305 52.56163805 16.28452845 52.2128534 12.453125 51.86523438 C10.01297627 51.64110968 7.57287048 51.41651679 5.1328125 51.19140625 C3.41869675 51.03509483 3.41869675 51.03509483 1.66995239 50.87562561 C0.6046933 50.77559738 -0.4605658 50.67556915 -1.55810547 50.57250977 C-2.49089325 50.48590591 -3.42368103 50.39930206 -4.38473511 50.31007385 C-6.96221607 50.00447978 -9.46337279 49.54519117 -12 49 C-13.70077697 32.02372616 -6.6346467 15.31615249 0 0 Z " fill="#0C98D9" transform="translate(107,187)"/>
<path d="M0 0 C2.55729731 1.0343363 3.64960296 2.81234135 5.29907227 4.95092773 C8.68847919 8.74479849 12.90708896 11.70080634 16.93579102 14.78295898 C15.44279955 20.25438437 12.80994966 24.46252268 9.74829102 29.15795898 C8.66678017 30.84235318 7.58609153 32.52727549 6.50610352 34.21264648 C5.93021484 35.10822266 5.35432617 36.00379883 4.76098633 36.92651367 C1.5068495 42.01926392 -1.68132473 47.15322105 -4.87670898 52.28295898 C-6.67565454 55.16916887 -8.4756568 58.05439989 -10.28930664 60.93139648 C-11.52776814 62.92111179 -12.73899654 64.92792452 -13.92895508 66.94702148 C-14.53433105 67.95506836 -15.13970703 68.96311523 -15.76342773 70.00170898 C-16.30185303 70.91887695 -16.84027832 71.83604492 -17.39501953 72.78100586 C-17.94585205 73.44165039 -18.49668457 74.10229492 -19.06420898 74.78295898 C-30.35637128 74.78295898 -42.12398614 59.75153712 -49.75048828 52.16040039 C-52.53157582 49.37756176 -55.30022582 46.58278631 -58.06420898 43.78295898 C-56.96502609 40.48541031 -56.4926856 40.10071102 -53.76733398 38.20874023 C-53.06656738 37.7143042 -52.36580078 37.21986816 -51.64379883 36.71044922 C-50.87503418 36.17750244 -50.10626953 35.64455566 -49.31420898 35.09545898 C-42.25070558 30.10111304 -35.30572648 24.98241427 -28.43920898 19.72045898 C-27.12400269 18.71764893 -27.12400269 18.71764893 -25.78222656 17.69458008 C-21.60758475 14.5092101 -17.4491887 11.3058999 -13.31811523 8.06420898 C-11.87934638 6.94958275 -10.4405462 5.83499696 -9.00170898 4.72045898 C-8.35314941 4.20153076 -7.70458984 3.68260254 -7.03637695 3.14794922 C-2.59080474 -0.27240987 -2.59080474 -0.27240987 0 0 Z " fill="#FC9D25" transform="translate(187.064208984375,318.217041015625)"/>
<path d="M0 0 C4.14084987 3.23188283 7.55175697 6.64510585 10.95703125 10.63671875 C13.37505592 13.43386009 15.86952907 16.15653602 18.375 18.875 C22.50390978 23.36184689 26.59740132 27.87800255 30.66796875 32.41796875 C32.39076259 34.32545071 34.12143914 36.22334495 35.86328125 38.11328125 C36.353125 38.64501953 36.84296875 39.17675781 37.34765625 39.72460938 C38.73684645 41.23049155 40.12812913 42.7344426 41.51953125 44.23828125 C43.78218711 46.75749021 45.91560924 49.33256288 48 52 C46.48342163 55.3927578 44.48592304 58.01516492 42.125 60.875 C39.17373124 64.4546758 36.55452905 68.12786473 34 72 C19.48286301 65.21690232 5.13199147 58.12712264 -9.1875 50.9375 C-11.3169622 49.87025296 -13.44651899 48.80319462 -15.57617188 47.73632812 C-20.7185361 45.15971799 -25.85974422 42.58081364 -31 40 C-30.2226495 38.5781013 -29.44246876 37.1577497 -28.66113281 35.73803711 C-28.22698059 34.94691025 -27.79282837 34.15578339 -27.34552002 33.34068298 C-25.37209548 29.90768967 -23.11370537 26.73467345 -20.75 23.5625 C-20.27473877 22.91998291 -19.79947754 22.27746582 -19.30981445 21.61547852 C-13.48193586 13.83751331 -6.95565892 6.77730869 0 0 Z " fill="#57C02C" transform="translate(143,138)"/>
<path d="M0 0 C5.41079958 1.75728385 10.68295914 3.79971705 15.9765625 5.87890625 C18.33376478 6.75295929 20.56504025 7.42195145 23 8 C21.74679821 17.4880115 20.12602668 26.81524288 18.1875 36.1875 C17.65593606 38.79786452 17.12550291 41.40841664 16.59765625 44.01953125 C16.39834503 45.00427429 16.39834503 45.00427429 16.19500732 46.00891113 C13.98550324 56.9781804 11.99993451 67.99096454 10 79 C2.1136092 77.92477686 -5.04239276 76.2494942 -12.4375 73.3125 C-13.78666504 72.7872876 -13.78666504 72.7872876 -15.16308594 72.25146484 C-34.7752536 64.4494928 -34.7752536 64.4494928 -37 60 C-35.7434082 57.50415039 -35.7434082 57.50415039 -33.80078125 54.34765625 C-33.28126389 53.49657288 -33.28126389 53.49657288 -32.75125122 52.6282959 C-31.61282398 50.76809877 -30.46289347 48.91531644 -29.3125 47.0625 C-28.52619512 45.7834775 -27.74047172 44.50409734 -26.95532227 43.22436523 C-21.57662479 34.47475394 -16.11944159 25.77432792 -10.60546875 17.109375 C-7.00448637 11.44670061 -3.49630153 5.72776456 0 0 Z " fill="#DD1568" transform="translate(213,339)"/>
<path d="M0 0 C15.64104135 6.95019443 28.77281883 15.04204179 42 26 C40.39606978 29.86776315 37.77367619 32.6265358 34.9375 35.625 C33.93578643 36.7001376 32.93448985 37.77566385 31.93359375 38.8515625 C31.43585449 39.38426758 30.93811523 39.91697266 30.42529297 40.46582031 C28.42370633 42.62032022 26.46096949 44.80853681 24.5 47 C21.15114725 50.73295055 17.77022035 54.43434239 14.375 58.125 C10.17891826 62.69022157 6.05832758 67.31209893 2 72 C0.68823285 73.50064092 -0.62425786 75.00064969 -1.9375 76.5 C-2.52402344 77.1703125 -3.11054688 77.840625 -3.71484375 78.53125 C-4.13894531 79.0159375 -4.56304687 79.500625 -5 80 C-11.79338386 76.20834389 -18.3880593 72.09642041 -25 68 C-24.42780724 61.71343687 -22.43545155 56.34589795 -20.140625 50.4921875 C-19.56124176 48.98847092 -19.56124176 48.98847092 -18.97015381 47.45437622 C-17.73699011 44.25853718 -16.49370211 41.06675064 -15.25 37.875 C-14.42900964 35.75286628 -13.60869062 33.63047272 -12.7890625 31.5078125 C-11.2241165 27.45746165 -9.6543001 23.40905884 -8.08007812 19.36230469 C-6.82265297 16.1275664 -5.57325705 12.89021938 -4.34179688 9.64550781 C-3.89384766 8.46569336 -3.44589844 7.28587891 -2.984375 6.0703125 C-2.61538086 5.09078613 -2.24638672 4.11125977 -1.86621094 3.10205078 C-1 1 -1 1 0 0 Z " fill="#DDA83B" transform="translate(322,105)"/>
<path d="M0 0 C0 23.76 0 47.52 0 72 C-17 75 -17 75 -24 76 C-26.27525662 70.11850813 -28.54979246 64.23673814 -30.82373047 58.35473633 C-31.59340101 56.36410442 -32.36325063 54.37354173 -33.13330078 52.38305664 C-35.00720835 47.53906681 -36.8778675 42.69387985 -38.7421875 37.84619141 C-40.26989817 33.87715713 -41.81945613 29.91752404 -43.3828125 25.96240234 C-44.13027069 24.05178221 -44.87766895 22.14113862 -45.625 20.23046875 C-45.98013672 19.34418289 -46.33527344 18.45789703 -46.70117188 17.54475403 C-47.01892578 16.72714096 -47.33667969 15.90952789 -47.6640625 15.06713867 C-47.94717285 14.35144211 -48.2302832 13.63574554 -48.52197266 12.89836121 C-49 11 -49 11 -48 8 C-33.10612473 1.98941532 -15.86724123 0 0 0 Z " fill="#1B4A6B" transform="translate(253,92)"/>
<path d="M0 0 C4.30187927 3.73719345 6.90052213 8.42706442 9.8125 13.25 C10.96674714 15.13975112 12.12172494 17.02905612 13.27734375 18.91796875 C14.18395752 20.40369385 14.18395752 20.40369385 15.10888672 21.91943359 C18.92531284 28.13627645 22.82189194 34.30352895 26.71020508 40.47558594 C30.95082716 47.23594743 35.016046 54.08541723 39 61 C28.60436558 67.70732029 17.6186568 71.885674 6 76 C5.18450684 76.29712891 4.36901367 76.59425781 3.52880859 76.90039062 C2.74973145 77.17560547 1.9706543 77.45082031 1.16796875 77.734375 C0.48371826 77.97897461 -0.20053223 78.22357422 -0.90551758 78.47558594 C-3.32889781 79.08234905 -5.5114919 79.08789672 -8 79 C-11.01734625 64.20169157 -13.9173129 49.38070403 -16.76293945 34.54852295 C-17.12917287 32.64190464 -17.49668507 30.73553152 -17.86547852 28.82940674 C-18.38924641 26.12003296 -18.9081402 23.40976888 -19.42578125 20.69921875 C-19.66449699 19.4709713 -19.66449699 19.4709713 -19.90803528 18.21791077 C-20.56958597 14.72787564 -21 11.56586662 -21 8 C-19.98679687 7.67386719 -18.97359375 7.34773438 -17.9296875 7.01171875 C-16.57804496 6.57055764 -15.22648693 6.12913758 -13.875 5.6875 C-13.20984375 5.47416016 -12.5446875 5.26082031 -11.859375 5.04101562 C-7.70524366 3.67666857 -3.87495131 2.05819065 0 0 Z " fill="#A21A43" transform="translate(302,338)"/>
<path d="M0 0 C2.86253357 1.34716818 5.34286804 2.87773056 7.87890625 4.765625 C8.62551514 5.31879395 9.37212402 5.87196289 10.14135742 6.44189453 C10.94033447 7.03856934 11.73931152 7.63524414 12.5625 8.25 C14.27856558 9.52354564 15.99471374 10.79698002 17.7109375 12.0703125 C18.5884668 12.72290039 19.46599609 13.37548828 20.37011719 14.04785156 C23.67739584 16.50282744 26.99579899 18.94244964 30.31494141 21.38134766 C39.58737921 28.19589291 48.80797618 35.07745516 58 42 C56.64115877 46.05687563 54.89451497 48.49025517 51.88671875 51.51171875 C51.05640137 52.34799805 50.22608398 53.18427734 49.37060547 54.04589844 C48.48518066 54.91762695 47.59975586 55.78935547 46.6875 56.6875 C45.78918457 57.57856445 44.89086914 58.46962891 43.96533203 59.38769531 C25.98275037 77 25.98275037 77 21 77 C19.67822266 75.19018555 19.67822266 75.19018555 18.1640625 72.63671875 C17.60050049 71.69658936 17.03693848 70.75645996 16.45629883 69.7878418 C15.85197021 68.764729 15.2476416 67.74161621 14.625 66.6875 C13.35161271 64.56168938 12.07685248 62.43670061 10.80078125 60.3125 C10.16092285 59.24515625 9.52106445 58.1778125 8.86181641 57.078125 C6.23923846 52.74223951 3.53525261 48.46094742 0.8125 44.1875 C-4.90530397 35.19361109 -10.47050281 26.11060856 -16 17 C-13.63017474 14.62604612 -11.25871652 12.25445197 -8.8671875 9.90234375 C-8.20976562 9.25394531 -7.55234375 8.60554688 -6.875 7.9375 C-6.21242188 7.28652344 -5.54984375 6.63554687 -4.8671875 5.96484375 C-3.06859805 4.07218581 -1.52022426 2.11981582 0 0 Z " fill="#FBC30C" transform="translate(328,316)"/>
<path d="M0 0 C5.35549798 13.34352968 10.69072136 26.69494876 15.92163086 40.08789062 C16.69408534 42.05960837 17.47090983 44.02961871 18.25170898 45.99804688 C19.39834847 48.89053897 20.53071751 51.78825577 21.66015625 54.6875 C22.01207535 55.56656006 22.36399445 56.44562012 22.72657776 57.35131836 C23.04118454 58.16737549 23.35579132 58.98343262 23.67993164 59.82421875 C23.96002579 60.53666748 24.24011993 61.24911621 24.52870178 61.9831543 C25.08547661 64.36578354 24.85044486 65.7222133 24 68 C22.46533203 69.24853516 22.46533203 69.24853516 20.5078125 70.2890625 C19.80269531 70.67320312 19.09757812 71.05734375 18.37109375 71.453125 C17.62988281 71.83984375 16.88867188 72.2265625 16.125 72.625 C14.66886017 73.40809102 13.21311586 74.19191807 11.7578125 74.9765625 C11.1095752 75.31768066 10.46133789 75.65879883 9.79345703 76.01025391 C8.14472336 76.92013225 6.56686389 77.95542407 5 79 C0.46695105 74.57291843 -3.88754332 70.06894277 -8.01953125 65.265625 C-10.46605768 62.46683737 -12.98076721 59.73310183 -15.5 57 C-19.09537135 53.0957978 -22.63591187 49.15365522 -26.109375 45.140625 C-29.07762823 41.77987548 -32.12778018 38.49394163 -35.18164062 35.2109375 C-37.61804168 32.57585997 -39.91329267 29.92139026 -42 27 C-38.36886253 18.43954639 -28.11493438 13.71174723 -20.4375 9.25 C-19.64674072 8.79036865 -18.85598145 8.3307373 -18.04125977 7.85717773 C-4.23293122 0 -4.23293122 0 0 0 Z " fill="#02699D" transform="translate(194,105)"/>
<path d="M0 0 C2.91587186 3.70624537 4.67501841 7.56544134 6.375 11.9375 C6.67736572 12.71512695 6.97973145 13.49275391 7.29125977 14.29394531 C9.61826433 20.51159323 11.39427475 26.79604803 12.9375 33.25 C13.14874512 34.13034912 13.35999023 35.01069824 13.57763672 35.91772461 C14.59516361 40.40668668 15.03518721 44.38017884 15 49 C6.35087468 49.78493135 -2.29846446 50.56745123 -10.94808483 51.34690857 C-14.96460277 51.70893165 -18.98104263 52.07177934 -22.99731445 52.43652344 C-26.87450813 52.78860615 -30.75189311 53.13850724 -34.62941933 53.48690796 C-36.107425 53.62009286 -37.58536053 53.75405862 -39.06322289 53.88882446 C-41.13596144 54.07770135 -43.20893386 54.2637798 -45.28198242 54.44921875 C-47.05069954 54.60910278 -47.05069954 54.60910278 -48.85514832 54.7722168 C-51.5864189 54.97004411 -54.26342693 55.04528736 -57 55 C-58.00427892 51.54289448 -59.0026944 48.08412303 -60 44.625 C-60.28617187 43.64015625 -60.57234375 42.6553125 -60.8671875 41.640625 C-61.13789063 40.69960937 -61.40859375 39.75859375 -61.6875 38.7890625 C-62.06455078 37.48509521 -62.06455078 37.48509521 -62.44921875 36.15478516 C-63 34 -63 34 -63 32 C-62.14794228 31.5756366 -62.14794228 31.5756366 -61.27867126 31.1427002 C-55.28990871 28.15950403 -49.30263464 25.17333574 -43.31616211 22.18554688 C-41.09094565 21.07543094 -38.86536861 19.96603746 -36.6394043 18.85742188 C-24.33861465 12.73052822 -12.06739752 6.5770931 0 0 Z " fill="#C51B2E" transform="translate(406,188)"/>
<path d="M0 0 C7.68564682 0 14.27824448 0.26845052 21.6875 1.6875 C23.10119873 1.94998535 23.10119873 1.94998535 24.54345703 2.21777344 C32.93618227 3.84712514 40.91800223 6.23498638 49 9 C44.21048808 22.9139179 38.97905243 36.6454526 33.6875 50.375 C32.45351497 53.5821572 31.22018682 56.78956533 29.98750305 59.9972229 C29.2271467 61.97524453 28.46594189 63.95294027 27.70378113 65.93026733 C27.36284927 66.81614532 27.02191742 67.70202332 26.6706543 68.61474609 C26.22147896 69.78026505 26.22147896 69.78026505 25.76322937 70.96932983 C25.13807454 72.63263488 24.56190766 74.31427701 24 76 C15.97116308 74.8530233 7.98693938 73.40945989 0 72 C0 48.24 0 24.48 0 0 Z " fill="#E5253C" transform="translate(263,92)"/>
<path d="M0 0 C0.51472827 16.78014157 0.36188279 32.91435162 -5 49 C-9.82251092 48.62903762 -13.95858703 47.76413521 -18.52734375 46.16015625 C-24.72541984 44.05067539 -30.97857281 42.33498298 -37.3125 40.6875 C-49.6449055 37.42905424 -61.8167503 33.77834959 -74 30 C-73.34 22.08 -72.68 14.16 -72 6 C-55.88882752 4.25255745 -39.77363815 2.66881227 -23.625 1.3125 C-22.84523804 1.24606293 -22.06547607 1.17962585 -21.26208496 1.11117554 C-19.02134387 0.92099921 -16.78029011 0.73512602 -14.5390625 0.55078125 C-13.25209473 0.44419189 -11.96512695 0.33760254 -10.63916016 0.2277832 C-7.08172142 0.00511513 -3.56331786 -0.04049878 0 0 Z " fill="#FE3B23" transform="translate(422,247)"/>
<path d="M0 0 C11.40142096 8.92285119 19.31247585 20.9115446 27 33 C27.60972656 33.90878906 28.21945312 34.81757813 28.84765625 35.75390625 C29.22792969 36.49511719 29.60820312 37.23632812 30 38 C29 41 29 41 26.53944397 42.53764343 C25.44627365 43.08169327 24.35310333 43.6257431 23.22680664 44.1862793 C22.62515182 44.48907806 22.02349701 44.79187683 21.40361023 45.10385132 C19.41051649 46.10375885 17.41060316 47.0891153 15.41015625 48.07421875 C14.02594338 48.76420082 12.64211315 49.45495104 11.25865173 50.1464386 C8.35716773 51.59409523 5.45249551 53.03506719 2.54516602 54.47094727 C-1.18677559 56.31427341 -4.91249501 58.16976454 -8.63616085 60.02974224 C-11.49371118 61.45630597 -14.35341206 62.87850963 -17.21389961 64.29917336 C-18.58868571 64.98211802 -19.96303957 65.6659335 -21.33695793 66.35062218 C-23.25509637 67.30518379 -25.17580289 68.25435321 -27.09741211 69.2019043 C-28.19137802 69.74356735 -29.28534393 70.28523041 -30.41246033 70.8433075 C-33 72 -33 72 -35 72 C-36.17606881 70.16924301 -37.26582382 68.28268918 -38.3125 66.375 C-40.89082062 61.81169613 -43.46506051 57.85629763 -47 54 C-45.70176525 50.18437605 -44.25033142 47.92909121 -41.3125 45.1875 C-38.6698837 42.64415909 -36.13943642 40.09528345 -33.75 37.3125 C-30.58230142 33.62896059 -27.30464085 30.06009411 -24 26.5 C-20.22290149 22.42737288 -16.50016915 18.32342327 -12.8671875 14.12109375 C-8.65958272 9.34132514 -4.31546789 4.68224365 0 0 Z " fill="#4D9F39" transform="translate(372,139)"/>
<path d="M0 0 C7.40835953 1.18480423 14.42405904 2.89759512 21.5625 5.1875 C31.3541441 8.25460526 41.20515164 11.00414706 51.13110352 13.60229492 C57.17472036 15.19441779 63.0940977 16.95327812 69 19 C67.71972202 25.68291698 65.76937652 31.51023496 62.9375 37.6875 C62.54481934 38.55093018 62.15213867 39.41436035 61.74755859 40.30395508 C59.1830021 45.80373061 56.38632023 51.06934991 53.125 56.1875 C52.75624756 56.76910889 52.38749512 57.35071777 52.00756836 57.94995117 C50.11383208 60.78990273 49.32975813 61.89008062 46 63 C43.8203125 61.69140625 43.8203125 61.69140625 41.125 59.5625 C40.04445603 58.72241799 38.96371066 57.882595 37.8828125 57.04296875 C37.2734082 56.5639209 36.66400391 56.08487305 36.03613281 55.59130859 C32.93322901 53.16628138 29.79709836 50.78541269 26.6628418 48.40112305 C24.87609409 47.04160905 23.09112017 45.67976092 21.30786133 44.31567383 C16.65704274 40.76141334 11.98606984 37.24012962 7.26953125 33.7734375 C6.35365234 33.09748535 5.43777344 32.4215332 4.49414062 31.72509766 C2.7413261 30.43410444 0.98368874 29.14962711 -0.77929688 27.87255859 C-1.56755859 27.29070801 -2.35582031 26.70885742 -3.16796875 26.109375 C-3.86172607 25.60374023 -4.5554834 25.09810547 -5.27026367 24.57714844 C-7.20488739 22.81318665 -8.1597822 21.47910914 -9 19 C-8.03402843 16.49861065 -7.04506879 14.38140618 -5.75 12.0625 C-3.62509603 8.10245169 -1.62844058 4.19516032 0 0 Z " fill="#28BDE2" transform="translate(345,287)"/>
</svg>
